<?xml version="1.0" standalone="no"?>
<!DOCTYPE svg PUBLIC "-//W3C//DTD SVG 20010904//EN"
 "http://www.w3.org/TR/2001/REC-SVG-20010904/DTD/svg10.dtd">
<svg version="1.0" xmlns="http://www.w3.org/2000/svg"
 width="819.000000pt" height="819.000000pt" viewBox="0 0 819.000000 819.000000"
 preserveAspectRatio="xMidYMid meet">
<metadata>
Created by potrace 1.14, written by Peter Selinger 2001-2017
</metadata>
<g transform="translate(0.000000,819.000000) scale(0.100000,-0.100000)"
fill="#000000" stroke="none">
<path d="M3215 7813 c5 -160 15 -362 20 -428 2 -27 6 -99 10 -160 3 -60 7
-128 10 -150 2 -22 7 -85 10 -140 3 -55 8 -116 10 -135 2 -19 7 -71 10 -115 4
-44 8 -100 10 -125 3 -25 7 -76 10 -115 3 -38 8 -95 11 -125 3 -30 7 -80 9
-110 3 -30 7 -77 10 -105 3 -27 7 -77 10 -110 5 -59 14 -156 20 -205 1 -14 6
-59 9 -100 4 -41 9 -88 11 -105 2 -16 7 -66 10 -110 3 -44 8 -87 10 -95 2 -8
6 -50 10 -92 3 -42 7 -85 9 -95 4 -18 15 -130 21 -208 2 -22 6 -66 10 -98 l7
-59 -73 41 c-223 124 -717 358 -1094 516 -188 79 -652 265 -661 265 -3 0 -20
7 -37 15 -35 16 -371 141 -537 200 -58 20 -114 41 -125 46 -11 5 -58 22 -105
38 -47 16 -123 43 -169 60 -46 18 -85 30 -86 29 -1 -2 -18 -52 -38 -113 -19
-60 -68 -209 -107 -330 -40 -121 -73 -224 -74 -230 -2 -9 -71 -221 -237 -730
-26 -82 -64 -197 -83 -255 -18 -58 -31 -108 -27 -112 4 -4 67 -23 141 -42 470
-121 631 -161 840 -211 129 -32 242 -58 250 -60 34 -7 121 -27 215 -50 55 -13
111 -26 125 -28 14 -3 95 -21 180 -40 85 -20 211 -48 280 -62 69 -15 152 -33
186 -40 34 -7 74 -16 90 -18 16 -3 73 -15 128 -26 54 -12 108 -23 120 -25 11
-3 45 -10 74 -16 30 -7 59 -13 65 -14 7 -1 90 -17 185 -36 l172 -34 -142 -141
c-113 -111 -304 -310 -383 -398 -18 -20 -127 -140 -163 -180 -29 -33 -107
-121 -317 -362 -48 -55 -204 -238 -250 -294 -11 -13 -38 -45 -60 -71 -44 -50
-79 -92 -206 -245 -93 -112 -106 -127 -305 -370 -76 -94 -157 -192 -179 -219
-74 -89 -75 -77 12 -140 117 -85 272 -197 653 -471 303 -218 407 -293 445
-322 6 -5 38 -27 72 -50 l61 -43 125 0 125 0 56 74 c52 70 365 537 430 643 16
27 44 71 62 98 57 90 234 385 332 555 52 91 117 203 144 249 26 46 48 85 48
87 0 2 47 87 155 279 24 43 69 126 135 250 9 17 51 96 94 178 44 81 82 147 85
147 3 -1 37 -56 75 -123 182 -320 771 -1286 928 -1519 32 -48 58 -90 58 -93 0
-3 5 -11 11 -18 5 -7 42 -61 82 -122 39 -60 75 -112 79 -113 4 -2 8 -8 8 -13
0 -6 25 -47 57 -92 31 -45 81 -118 111 -162 31 -44 91 -131 135 -193 l79 -112
128 0 129 0 208 148 c252 180 617 438 658 466 17 11 32 23 35 26 3 3 25 19 50
35 25 16 47 33 50 36 3 3 43 32 90 65 207 143 229 159 230 168 0 8 -110 148
-130 166 -3 3 -68 82 -145 175 -77 94 -142 172 -145 175 -3 3 -41 48 -85 100
-44 52 -87 104 -96 115 -60 71 -163 191 -168 195 -6 5 -95 108 -142 164 -13
16 -33 38 -44 50 -16 18 -159 178 -252 283 -177 201 -640 674 -802 819 -108
98 -125 114 -120 118 2 2 29 7 59 10 30 4 73 9 95 12 22 3 51 7 65 9 14 2 43
6 65 9 22 3 62 8 89 11 27 3 51 7 55 9 3 2 33 7 66 10 57 6 75 8 135 21 14 3
43 7 65 11 36 5 154 25 230 39 17 3 64 12 105 20 350 64 899 193 1260 295 80
22 153 42 162 45 27 6 289 84 318 95 14 5 78 25 143 46 l117 36 0 121 0 121
-101 311 c-55 170 -109 335 -119 365 -10 30 -59 181 -108 335 -50 154 -110
339 -133 411 l-42 131 -31 -7 c-33 -8 -334 -112 -526 -180 -63 -23 -126 -45
-140 -50 -14 -4 -135 -49 -270 -100 -135 -51 -260 -98 -277 -105 -18 -6 -36
-14 -39 -18 -4 -4 -13 -7 -21 -7 -7 0 -32 -9 -56 -19 -23 -10 -96 -40 -162
-67 -66 -26 -138 -55 -160 -64 -22 -10 -112 -48 -200 -85 -151 -64 -217 -93
-310 -135 -22 -10 -85 -39 -140 -63 -134 -60 -300 -139 -474 -225 l-143 -71 6
57 c7 66 13 112 20 162 3 19 8 54 11 78 12 97 16 128 20 152 2 14 7 52 10 85
3 33 7 71 10 85 2 14 7 48 10 75 3 28 8 66 10 85 3 19 7 55 9 80 3 25 7 65 10
90 3 25 11 92 16 150 6 58 13 116 15 130 3 23 6 51 20 203 3 26 8 71 11 100 4
28 8 68 9 87 6 75 16 196 20 225 2 17 6 71 10 120 3 50 8 106 10 125 2 19 7
76 10 125 4 50 8 110 10 135 3 25 7 95 10 155 3 61 7 135 10 165 2 30 7 132
11 225 3 94 6 172 6 175 2 30 -2 30 -907 30 l-905 0 5 -127z"/>
</g>
</svg>
